<svg xmlns="http://www.w3.org/2000/svg" version="1.1" xmlns:xlink="http://www.w3.org/1999/xlink" xmlns:svgjs="http://svgjs.dev/svgjs" width="1000" height="1000" viewBox="0 0 1000 1000"><rect width="1000" height="1000" fill="#ff5858"></rect><g transform="matrix(0.7,0,0,0.7,149.57575757575756,282.1265587044535)"><svg viewBox="0 0 396 247" data-background-color="#ff5858" preserveAspectRatio="xMidYMid meet" height="623" width="1000" xmlns="http://www.w3.org/2000/svg" xmlns:xlink="http://www.w3.org/1999/xlink"><g id="tight-bounds" transform="matrix(1,0,0,1,0.2400000000000091,-0.09999999999999432)"><svg viewBox="0 0 395.52 247.2" height="247.2" width="395.52"><g><svg></svg></g><g><svg viewBox="0 0 395.52 247.2" height="247.2" width="395.52"><mask id="bde34648-19f6-44aa-8945-e1242c3fabcb"><rect width="640" height="400" fill="white"></rect><g transform="matrix(1,0,0,1,126.81312986777758,37.08)"><svg viewBox="0 0 141.89374026444483 173.04" height="173.04" width="141.89374026444483"><g><svg viewBox="0 0 141.89374026444483 173.04" height="173.04" width="141.89374026444483"><g><svg viewBox="0 0 141.89374026444486 173.04000000000002" height="173.04" width="141.89374026444483"><g><svg viewBox="0 0 141.89374026444486 173.04000000000002" height="173.04000000000002" width="141.89374026444486"><g id="SvgjsG1088"><svg viewBox="0 0 141.89374026444486 173.04000000000002" height="173.04000000000002" width="141.89374026444486" id="SvgjsSvg1087"><g><svg viewBox="0 0 141.89374026444486 173.04000000000002" height="173.04000000000002" width="141.89374026444486"><g transform="matrix(1,0,0,1,0,0)"><svg width="141.89374026444486" viewBox="-2.6799999475479126 -39.790000915527344 36.3700008392334 44.130001068115234" height="173.04000000000002" data-palette-color="#ffffff"><path d="M29.69-23.49L29.69-23.49Q29.69-21.12 28.98-19.29 28.27-17.46 27.04-16.09 25.81-14.72 24.15-13.77 22.49-12.82 20.59-12.22 18.7-11.62 16.67-11.34 14.65-11.06 12.7-11.04L12.7-11.04 12.7 0.34 1.32 0.34Q1.32-5.25 1.34-10.79 1.37-16.33 1.42-21.97L1.42-21.97Q1.46-24.95 1.44-27.93 1.42-30.91 1.56-33.94L1.56-33.94Q4.69-34.86 7.81-35.33 10.94-35.79 14.26-35.79L14.26-35.79Q16.14-35.79 18.02-35.49 19.9-35.18 21.62-34.52 23.34-33.86 24.82-32.87 26.29-31.88 27.37-30.52 28.44-29.15 29.06-27.4 29.69-25.66 29.69-23.49ZM18.85-22.66L18.85-22.66Q18.85-24.24 17.88-25.13 16.92-26.03 15.38-26.03L15.38-26.03Q14.87-26.03 14.32-25.94 13.77-25.85 13.28-25.73L13.28-25.73 12.99-18.6Q13.33-18.55 13.65-18.55 13.96-18.55 14.31-18.55L14.31-18.55Q15.19-18.55 16-18.85 16.82-19.14 17.46-19.69 18.09-20.24 18.47-20.98 18.85-21.73 18.85-22.66Z" opacity="1" transform="matrix(1,0,0,1,0,0)" fill="black" class="wordmark-text-0" id="SvgjsPath1086" stroke-width="7" stroke="black" stroke-linejoin="round"></path></svg></g></svg></g></svg></g></svg></g><g></g></svg></g></svg></g></svg></g></mask><g transform="matrix(1,0,0,1,126.81312986777758,37.08)"><svg viewBox="0 0 141.89374026444483 173.04" height="173.04" width="141.89374026444483"><g><svg viewBox="0 0 141.89374026444483 173.04" height="173.04" width="141.89374026444483"><g><svg viewBox="0 0 141.89374026444486 173.04000000000002" height="173.04" width="141.89374026444483"><g><svg viewBox="0 0 141.89374026444486 173.04000000000002" height="173.04000000000002" width="141.89374026444486"><g id="textblocktransform"><svg viewBox="0 0 141.89374026444486 173.04000000000002" height="173.04000000000002" width="141.89374026444486" id="textblock"><g><svg viewBox="0 0 141.89374026444486 173.04000000000002" height="173.04000000000002" width="141.89374026444486"><g transform="matrix(1,0,0,1,0,0)"><svg width="141.89374026444486" viewBox="-2.6799999475479126 -39.790000915527344 36.3700008392334 44.130001068115234" height="173.04000000000002" data-palette-color="#ffffff"><path d="M29.69-23.49L29.69-23.49Q29.69-21.12 28.98-19.29 28.27-17.46 27.04-16.09 25.81-14.72 24.15-13.77 22.49-12.82 20.59-12.22 18.7-11.62 16.67-11.34 14.65-11.06 12.7-11.04L12.7-11.04 12.7 0.34 1.32 0.34Q1.32-5.25 1.34-10.79 1.37-16.33 1.42-21.97L1.42-21.97Q1.46-24.95 1.44-27.93 1.42-30.91 1.56-33.94L1.56-33.94Q4.69-34.86 7.81-35.33 10.94-35.79 14.26-35.79L14.26-35.79Q16.14-35.79 18.02-35.49 19.9-35.18 21.62-34.52 23.34-33.86 24.82-32.87 26.29-31.88 27.37-30.52 28.44-29.15 29.06-27.4 29.69-25.66 29.69-23.49ZM18.85-22.66L18.85-22.66Q18.85-24.24 17.88-25.13 16.92-26.03 15.38-26.03L15.38-26.03Q14.87-26.03 14.32-25.94 13.77-25.85 13.28-25.73L13.28-25.73 12.99-18.6Q13.33-18.55 13.65-18.55 13.96-18.55 14.31-18.55L14.31-18.55Q15.19-18.55 16-18.85 16.82-19.14 17.46-19.69 18.09-20.24 18.47-20.98 18.85-21.73 18.85-22.66Z" opacity="1" transform="matrix(1,0,0,1,0,0)" fill="#ffffff" class="wordmark-text-0" data-fill-palette-color="primary" id="text-0"></path></svg></g></svg></g></svg></g></svg></g><g></g></svg></g></svg></g></svg></g><g mask="url(#bde34648-19f6-44aa-8945-e1242c3fabcb)"><g transform="matrix(3.5078683068300105, 0, 0, 3.5078683068300105, 57.26986360629357, 1)"><svg xmlns="http://www.w3.org/2000/svg" xmlns:xlink="http://www.w3.org/1999/xlink" version="1.1" baseProfile="basic" x="0" y="0" viewBox="5 10 80.10000610351562 69.9000015258789" xml:space="preserve" height="69.9000015258789" width="80.10000610351562" class="icon-none" data-fill-palette-color="accent" id="none"><g fill="#ffffff" data-fill-palette-color="accent"><path fill-rule="evenodd" clip-rule="evenodd" d="M77.2 10H12.8C8.2 10 5 13.8 5 17.9v54.1c0 4.1 3.2 7.9 7.8 7.9h64.5c4.6 0 7.8-3.8 7.8-7.9V17.9C85 13.8 81.8 10 77.2 10zM12.8 17h64.5c1 0 1.8 0.6 1.8 0.9V33H11V17.9C11 17.6 11.7 17 12.8 17zM77.2 73H12.8c-1 0-1.8-0.6-1.8-0.9V37h68v35.1C79 72.4 78.3 73 77.2 73z" fill="#ffffff" data-fill-palette-color="accent"></path><path fill-rule="evenodd" clip-rule="evenodd" d="M71.4 27.8c1.4 0 2.6-1.2 2.6-2.7 0-1.5-1.2-2.7-2.6-2.7-1.4 0-2.6 1.2-2.6 2.7C68.8 26.6 70 27.8 71.4 27.8z" fill="#ffffff" data-fill-palette-color="accent"></path><path fill-rule="evenodd" clip-rule="evenodd" d="M60.9 27.8c1.4 0 2.6-1.2 2.6-2.7 0-1.5-1.2-2.7-2.6-2.7-1.5 0-2.6 1.2-2.6 2.7C58.2 26.6 59.4 27.8 60.9 27.8z" fill="#ffffff" data-fill-palette-color="accent"></path><path fill-rule="evenodd" clip-rule="evenodd" d="M50.3 27.8c1.4 0 2.6-1.2 2.6-2.7 0-1.5-1.2-2.7-2.6-2.7-1.5 0-2.7 1.2-2.7 2.7C47.6 26.6 48.8 27.8 50.3 27.8z" fill="#ffffff" data-fill-palette-color="accent"></path></g></svg></g></g></svg></g><defs></defs></svg><rect width="395.52" height="247.2" fill="none" stroke="none" visibility="hidden"></rect></g></svg></g></svg>